<mxfile host="app.diagrams.net" modified="2023-10-31T08:30:01.759Z" agent="Mozilla/5.0 (Macintosh; Intel Mac OS X 10_15_7) AppleWebKit/537.36 (KHTML, like Gecko) Chrome/118.0.0.0 Safari/537.36" version="22.0.8" etag="3doLm5k1vqsHzAzdgzqh" type="github">
  <diagram name="Page-1" id="qoOh3-nTZXhaIhzEbEa9">
    <mxGraphModel>
      <root>
        <mxCell id="0" />
        <mxCell id="1" parent="0" />
      </root>
    </mxGraphModel>
  </diagram>
</mxfile>
